<svg width="762" height="100" viewBox="0 0 762 100" fill="none" xmlns="http://www.w3.org/2000/svg">
<path d="M0 95.727V2.66309H43.6127C50.0797 2.66309 55.8498 3.95418 60.9 6.52501C65.9503 9.09584 69.8922 12.5922 72.7373 17.0254C75.5709 21.4587 76.9877 26.5546 76.9877 32.3133C76.9877 38.7918 75.5709 44.459 72.7373 49.3264C69.8922 54.2053 65.9617 57.9873 60.9 60.6952C55.8498 63.4031 50.0911 64.7514 43.6127 64.7514H26.8623V95.727H0ZM48.7886 95.727L25.1256 53.714L54.513 50.389L80.8382 95.727H48.8H48.7886ZM26.8509 44.8018H39.088C41.3046 44.8018 43.1442 44.379 44.6067 43.5335C46.0692 42.6994 47.1775 41.5226 47.9316 40.0143C48.6858 38.5061 49.0628 36.6894 49.0628 34.5642C49.0628 32.6218 48.6858 30.9536 47.9316 29.5825C47.1775 28.2114 46.0235 27.1373 44.4696 26.3947C42.9157 25.6406 40.9504 25.2635 38.551 25.2635H26.8509V44.8132V44.8018Z" fill="white"/>
<path d="M210.74 95.727V2.66309H239.453V71.2642H279.341V95.727H210.74Z" fill="white"/>
<path d="M292.629 95.727V2.66309H321.342V71.2642H361.23V95.727H292.629Z" fill="white"/>
<path d="M373.867 95.727V72.4639H390.218V25.9262H373.867V2.66309H435.293V25.9262H418.942V72.4639H435.293V95.727H373.867Z" fill="white"/>
<path d="M455.893 95.727V2.66309H481.555L524.368 61.8264L518.255 59.964C517.81 56.4219 517.432 53.3141 517.124 50.6633C516.815 48.001 516.541 45.5445 516.324 43.2821C516.107 41.0198 515.924 38.7918 515.787 36.5637C515.65 34.3471 515.593 31.9134 515.593 29.2511V2.66309H543.244V95.727H517.318L470.118 30.5765L480.881 33.7644C481.327 37.0436 481.704 39.9001 482.012 42.3338C482.321 44.7789 482.561 47.007 482.743 49.0522C482.915 51.086 483.075 53.1084 483.212 55.0965C483.349 57.096 483.429 59.3127 483.475 61.7464C483.52 64.1915 483.543 67.048 483.543 70.3158V95.7042H455.893V95.727Z" fill="white"/>
<path d="M608.921 97.0516C600.945 97.0516 593.873 95.8519 587.714 93.4639C581.556 91.0644 576.346 87.7052 572.095 83.3633C567.845 79.0215 564.623 73.8798 562.452 67.9384C560.281 61.9969 559.195 55.5299 559.195 48.5258C559.195 41.5217 560.418 34.9404 562.852 29.0446C565.285 23.1489 568.816 18.0301 573.421 13.6882C578.025 9.3464 583.498 5.97576 589.84 3.58775C596.181 1.19974 603.242 0 611.046 0C616.45 0 621.478 0.662691 626.14 1.9881C630.79 3.3135 635.006 5.11882 638.777 7.36972C642.547 9.63205 645.804 12.18 648.546 15.0136L631.533 33.1008C629.762 31.4212 627.854 29.9359 625.82 28.6447C623.786 27.3536 621.524 26.3367 619.033 25.5826C616.553 24.8285 613.765 24.4514 610.658 24.4514C607.55 24.4514 604.545 25.0456 601.882 26.2453C599.22 27.445 596.912 29.1018 594.97 31.2384C593.016 33.3636 591.485 35.9116 590.377 38.8823C589.268 41.8531 588.72 45.0637 588.72 48.5258C588.72 51.9878 589.291 55.1985 590.445 58.1578C591.599 61.1285 593.187 63.6765 595.233 65.8017C597.266 67.927 599.712 69.5837 602.545 70.7835C605.379 71.9832 608.487 72.5773 611.857 72.5773C614.154 72.5773 616.268 72.2002 618.176 71.4461C620.084 70.692 621.718 69.6751 623.089 68.384C624.46 67.1043 625.545 65.5504 626.345 63.7337C627.145 61.9169 627.545 59.9403 627.545 57.8151V53.9645L631.27 60.3402H607.607V40.1277H653.345C653.436 41.0989 653.55 42.6986 653.676 44.9152C653.802 47.1318 653.893 49.3256 653.939 51.4965C653.985 53.6675 654.007 55.1528 654.007 55.9526C654.007 61.8941 652.899 67.3899 650.682 72.4402C648.466 77.4904 645.335 81.8323 641.302 85.4657C637.268 89.0992 632.504 91.9328 627.008 93.978C621.512 96.0118 615.491 97.0401 608.932 97.0401L608.921 97.0516Z" fill="white"/>
<path d="M666.588 57.3584L688.377 3.0625H701.563L723.203 57.3584H706.601L697.918 33.6268C697.346 32.0272 696.855 30.6561 696.444 29.5135C696.032 28.3709 695.667 27.2968 695.358 26.2914C695.05 25.2859 694.741 24.2004 694.433 23.035C694.124 21.8695 693.816 20.487 693.507 18.8874H696.147C695.838 20.487 695.53 21.8695 695.221 23.035C694.913 24.2004 694.581 25.2859 694.25 26.2914C693.919 27.2968 693.53 28.3709 693.085 29.5135C692.639 30.6446 692.136 32.0157 691.576 33.6268L682.893 57.3584H666.611H666.588ZM677.442 49.2917L682.333 37.8886H707.538L711.96 49.2917H677.454H677.442Z" fill="white"/>
<path d="M723.58 57.3584V43.7844H733.121V16.6365H723.58V3.0625H759.412V16.6365H749.871V43.7844H759.412V57.3584H723.58Z" fill="white"/>
<path d="M161.289 100C155.141 100 148.914 98.4348 143.213 95.1441L101.965 71.3325C84.6437 61.3349 78.6794 39.1001 88.6885 21.7784C93.533 13.3804 101.36 7.38182 110.718 4.87955C120.075 2.37728 129.856 3.65696 138.243 8.50154L179.49 32.3131C196.812 42.3108 202.765 64.5456 192.767 81.8672C186.049 93.4874 173.834 100 161.289 100ZM120.121 28.5654C119.138 28.5654 118.144 28.6911 117.162 28.9539C114.237 29.7423 111.792 31.6161 110.272 34.2441C107.141 39.66 109.004 46.6183 114.431 49.749L155.678 73.5606C161.094 76.6913 168.053 74.8289 171.183 69.413C174.314 63.9971 172.452 57.0387 167.024 53.908L125.777 30.0965C124.029 29.0796 122.086 28.5654 120.121 28.5654Z" fill="white"/>
<path d="M761.113 79.1025H669.568V95.7158H761.113V79.1025Z" fill="white"/>
</svg>
