<?xml version="1.0" encoding="UTF-8"?>
<svg id="Layer_1" xmlns="http://www.w3.org/2000/svg" version="1.1" viewBox="0 0 1040.59 595.28">
  <!-- Generator: Adobe Illustrator 30.0.0, SVG Export Plug-In . SVG Version: 2.1.1 Build 123)  -->
  <defs>
    <style>
      .st0 {
        fill: #fff;
      }
    </style>
  </defs>
  <g>
    <path class="st0" d="M171.82,525.85v-11.93l.78.59-2.9,1.53-.61-1.97,3.93-2.1h1.09v13.88h-2.29ZM169.48,526.88v-2.18h7.01v2.18h-7.01Z"/>
    <path class="st0" d="M184.12,527.09c-1.12,0-2.08-.31-2.89-.92-.81-.62-1.42-1.49-1.86-2.61-.43-1.13-.65-2.47-.65-4.02s.22-2.89.65-4.02c.43-1.13,1.05-2,1.86-2.61.8-.62,1.77-.92,2.89-.92s2.09.31,2.9.92c.81.62,1.43,1.49,1.87,2.61.43,1.13.65,2.47.65,4.02s-.22,2.9-.65,4.02c-.43,1.13-1.06,2-1.87,2.61-.81.62-1.78.92-2.9.92ZM184.12,525.03c1.02,0,1.81-.48,2.37-1.44.56-.96.84-2.31.84-4.06s-.28-3.1-.84-4.06c-.56-.96-1.35-1.44-2.37-1.44s-1.81.48-2.37,1.44c-.56.96-.84,2.31-.84,4.06s.28,3.1.84,4.06c.56.96,1.35,1.44,2.37,1.44Z"/>
    <path class="st0" d="M196.87,527.09c-1.12,0-2.08-.31-2.89-.92-.81-.62-1.42-1.49-1.86-2.61-.43-1.13-.65-2.47-.65-4.02s.22-2.89.65-4.02c.43-1.13,1.05-2,1.86-2.61.8-.62,1.77-.92,2.89-.92s2.09.31,2.9.92c.81.62,1.43,1.49,1.87,2.61.43,1.13.65,2.47.65,4.02s-.22,2.9-.65,4.02c-.43,1.13-1.06,2-1.87,2.61-.81.62-1.78.92-2.9.92ZM196.87,525.03c1.02,0,1.81-.48,2.37-1.44.56-.96.84-2.31.84-4.06s-.28-3.1-.84-4.06c-.56-.96-1.35-1.44-2.37-1.44s-1.81.48-2.37,1.44c-.56.96-.84,2.31-.84,4.06s.28,3.1.84,4.06c.56.96,1.35,1.44,2.37,1.44Z"/>
    <path class="st0" d="M209.62,527.09c-1.12,0-2.08-.31-2.89-.92s-1.42-1.49-1.86-2.61c-.43-1.13-.65-2.47-.65-4.02s.22-2.89.65-4.02c.43-1.13,1.05-2,1.86-2.61s1.77-.92,2.89-.92,2.09.31,2.9.92c.81.62,1.43,1.49,1.87,2.61.43,1.13.65,2.47.65,4.02s-.22,2.9-.65,4.02c-.43,1.13-1.06,2-1.87,2.61-.81.62-1.78.92-2.9.92ZM209.62,525.03c1.02,0,1.81-.48,2.37-1.44.56-.96.84-2.31.84-4.06s-.28-3.1-.84-4.06c-.56-.96-1.35-1.44-2.37-1.44s-1.81.48-2.37,1.44c-.56.96-.84,2.31-.84,4.06s.28,3.1.84,4.06c.56.96,1.35,1.44,2.37,1.44Z"/>
    <path class="st0" d="M216.94,521.95v-1.89h10.52v1.89h-10.52ZM221.08,526v-10.14h2.21v10.14h-2.21Z"/>
    <path class="st0" d="M234.81,526.88l5.69-14.7h2.31l5.65,14.7h-2.42l-3.36-8.86c-.04-.1-.12-.34-.24-.71s-.26-.8-.41-1.26c-.15-.46-.29-.89-.42-1.27-.13-.38-.21-.63-.25-.75l.48-.02c-.08.24-.19.54-.3.9-.12.36-.25.75-.38,1.16-.13.41-.26.79-.39,1.14-.13.36-.23.65-.31.89l-3.34,8.78h-2.31ZM237.33,523.23l.84-2.18h6.68l.97,2.18h-8.48Z"/>
    <path class="st0" d="M255.23,531.71c-.78,0-1.56-.12-2.34-.37-.78-.25-1.4-.56-1.88-.96l.8-1.68c.28.21.61.4.99.56s.78.29,1.2.38c.42.09.83.14,1.24.14.77,0,1.41-.13,1.93-.38.52-.25.91-.62,1.18-1.11.27-.49.4-1.1.4-1.83v-2.12l.23.15c-.07.43-.3.85-.68,1.25s-.86.72-1.44.98-1.16.38-1.76.38c-1.05,0-1.98-.25-2.8-.75-.82-.5-1.47-1.18-1.94-2.04-.48-.86-.71-1.84-.71-2.95s.23-2.09.7-2.95c.47-.86,1.11-1.54,1.93-2.04.82-.5,1.74-.75,2.76-.75.42,0,.83.05,1.22.16.39.1.76.25,1.09.44.34.19.64.4.9.62.27.22.48.46.65.71.17.25.27.49.32.71l-.46.17v-2.58h2.16v10.35c0,.88-.13,1.66-.39,2.34-.26.68-.63,1.25-1.12,1.72-.49.47-1.08.83-1.79,1.07s-1.49.37-2.37.37ZM255.31,525.1c.69,0,1.29-.16,1.83-.48.53-.32.95-.76,1.24-1.32s.44-1.2.44-1.93-.15-1.38-.45-1.94c-.3-.57-.71-1.01-1.24-1.33-.53-.32-1.13-.48-1.82-.48s-1.27.17-1.79.49c-.53.33-.94.78-1.24,1.34-.3.57-.45,1.21-.45,1.92s.15,1.35.45,1.92.71,1.01,1.24,1.33c.53.32,1.12.48,1.79.48Z"/>
    <path class="st0" d="M269.07,527.09c-1.13,0-2.14-.24-3.01-.72-.88-.48-1.56-1.14-2.06-1.98s-.75-1.81-.75-2.9c0-.87.14-1.66.42-2.37s.67-1.33,1.17-1.86,1.09-.93,1.79-1.22c.69-.29,1.45-.43,2.26-.43.71,0,1.38.14,2,.41s1.15.65,1.61,1.12c.46.48.8,1.04,1.05,1.69.25.65.36,1.36.35,2.13l-.02.92h-9.01l-.48-1.72h7.62l-.32.36v-.5c-.04-.46-.2-.87-.46-1.24-.27-.36-.6-.65-1.01-.86-.41-.21-.85-.32-1.32-.32-.76,0-1.39.14-1.91.43-.52.29-.91.71-1.18,1.26-.27.55-.4,1.24-.4,2.05,0,.77.16,1.44.48,2.01s.78,1,1.37,1.31c.59.31,1.27.46,2.04.46.55,0,1.05-.09,1.52-.27.47-.18.98-.51,1.52-.99l1.09,1.53c-.34.34-.75.63-1.23.88-.48.25-.99.45-1.53.6-.54.15-1.07.22-1.58.22Z"/>
    <path class="st0" d="M276.23,526.88v-11.02h2.16v2.27l-.38.25c.14-.49.41-.94.82-1.35.41-.41.89-.75,1.45-1.01.56-.26,1.13-.39,1.72-.39.84,0,1.54.16,2.1.49.56.33.98.83,1.26,1.5.28.67.42,1.52.42,2.54v6.72h-2.16v-6.57c0-.63-.08-1.15-.25-1.56-.17-.41-.43-.71-.78-.9-.35-.19-.78-.27-1.3-.24-.42,0-.81.07-1.16.2-.35.13-.66.32-.91.56-.26.24-.46.51-.61.83-.15.31-.22.65-.22,1.02v6.68h-2.16Z"/>
    <path class="st0" d="M287.8,517.96v-2.1h7.01v2.1h-7.01ZM290.09,526.88v-13.84h2.16v13.84h-2.16Z"/>
    <path class="st0" d="M300.88,527.09c-.92,0-1.76-.16-2.5-.48s-1.36-.8-1.85-1.43l1.47-1.26c.42.49.88.84,1.38,1.06.5.22,1.06.33,1.69.33.25,0,.49-.03.7-.09s.41-.16.57-.28c.16-.13.28-.28.37-.45.08-.18.13-.37.13-.58,0-.36-.13-.66-.4-.88-.14-.1-.36-.21-.66-.33-.3-.12-.69-.24-1.17-.37-.81-.21-1.48-.45-2-.71-.52-.27-.92-.57-1.2-.9-.21-.27-.36-.56-.46-.87s-.15-.66-.15-1.04c0-.46.1-.89.3-1.27.2-.38.48-.72.84-1.01.36-.29.78-.51,1.26-.66.48-.15,1-.23,1.54-.23.52,0,1.03.07,1.54.21.51.14.98.34,1.42.61.43.27.8.58,1.09.94l-1.24,1.37c-.27-.27-.56-.5-.87-.7-.31-.2-.63-.36-.96-.47-.32-.11-.62-.17-.88-.17-.29,0-.56.03-.8.08-.24.06-.44.14-.6.25-.16.11-.28.25-.37.42s-.13.36-.13.57c.01.18.06.35.14.51s.19.3.33.41c.15.11.39.23.69.36s.7.25,1.18.36c.7.18,1.28.38,1.73.6.46.22.82.47,1.08.75.28.27.48.57.59.92.11.35.17.74.17,1.18,0,.63-.18,1.19-.54,1.69-.36.5-.84.89-1.44,1.17-.6.28-1.27.42-2.02.42Z"/>
    <path class="st0" d="M308.15,527.11c-.46,0-.82-.14-1.07-.41-.25-.27-.38-.66-.38-1.17,0-.46.13-.84.4-1.13s.62-.44,1.05-.44c.46,0,.82.14,1.07.41.25.27.38.66.38,1.17,0,.46-.13.84-.4,1.13-.27.29-.62.44-1.05.44Z"/>
    <path class="st0" d="M320.98,525.85v-11.93l.78.59-2.9,1.53-.61-1.97,3.93-2.1h1.09v13.88h-2.29ZM318.65,526.88v-2.18h7.01v2.18h-7.01Z"/>
    <path class="st0" d="M333.28,527.09c-1.12,0-2.08-.31-2.89-.92-.81-.62-1.42-1.49-1.86-2.61-.43-1.13-.65-2.47-.65-4.02s.22-2.89.65-4.02c.43-1.13,1.05-2,1.86-2.61.8-.62,1.77-.92,2.89-.92s2.09.31,2.9.92c.81.62,1.43,1.49,1.87,2.61.43,1.13.65,2.47.65,4.02s-.22,2.9-.65,4.02c-.43,1.13-1.06,2-1.87,2.61-.81.62-1.78.92-2.9.92ZM333.28,525.03c1.02,0,1.81-.48,2.37-1.44.56-.96.84-2.31.84-4.06s-.28-3.1-.84-4.06c-.56-.96-1.35-1.44-2.37-1.44s-1.81.48-2.37,1.44c-.56.96-.84,2.31-.84,4.06s.28,3.1.84,4.06c.56.96,1.35,1.44,2.37,1.44Z"/>
    <path class="st0" d="M340.17,526.88l5.61-8,1.41,1.66-4.35,6.34h-2.67ZM350.67,526.88l-4.56-6.59-5.84-8.11h2.88l4.45,6.51,5.94,8.19h-2.88ZM347.94,520.06l-1.39-1.6,4.12-6.28h2.67l-5.4,7.88Z"/>
    <path class="st0" d="M361.44,526.88v-2.1h2.37v-10.5h-2.37v-2.1h7.01v2.1h-2.37v10.5h2.37v2.1h-7.01Z"/>
    <path class="st0" d="M371.44,526.88v-11.02h2.18v2.35l-.4.25c.11-.36.29-.71.54-1.05.25-.34.55-.63.9-.89.36-.26.74-.47,1.16-.62.41-.15.84-.23,1.27-.23.63,0,1.18.1,1.66.31.48.21.87.52,1.18.94.31.42.53.95.67,1.58l-.34-.08.15-.36c.15-.32.37-.63.64-.91.27-.29.58-.54.93-.77.35-.22.72-.4,1.11-.52.39-.13.78-.19,1.15-.19.83,0,1.51.17,2.05.5s.95.85,1.22,1.53c.27.69.41,1.54.41,2.56v6.62h-2.18v-6.49c0-.63-.08-1.14-.24-1.54-.16-.4-.4-.7-.72-.89-.32-.2-.74-.29-1.24-.29-.39,0-.76.07-1.1.2-.34.13-.64.32-.89.56-.25.24-.45.51-.59.83-.14.31-.21.66-.21,1.04v6.59h-2.18v-6.53c0-.57-.08-1.06-.25-1.46-.17-.4-.41-.7-.74-.91s-.71-.32-1.18-.32c-.39,0-.76.07-1.09.2-.34.13-.63.31-.88.55s-.45.5-.59.82c-.14.31-.21.65-.21,1.02v6.64h-2.18Z"/>
    <path class="st0" d="M390.82,531.5v-15.65h2.18v2.52l-.34-.19c.08-.42.32-.82.71-1.21.39-.39.87-.7,1.44-.95.57-.24,1.15-.37,1.75-.37.99,0,1.88.25,2.65.73.77.49,1.38,1.16,1.83,2.02.45.85.67,1.83.67,2.94s-.22,2.07-.66,2.93c-.44.86-1.05,1.54-1.82,2.04-.77.5-1.64.75-2.6.75-.64,0-1.27-.13-1.87-.39-.6-.26-1.11-.59-1.53-1-.42-.41-.68-.83-.78-1.26l.55-.29v7.37h-2.18ZM396.28,525.07c.64,0,1.22-.16,1.72-.48.5-.32.9-.76,1.2-1.32s.44-1.2.44-1.91-.14-1.35-.43-1.9-.68-.99-1.19-1.31-1.08-.48-1.74-.48-1.24.16-1.74.47-.9.75-1.2,1.31c-.29.56-.44,1.2-.44,1.91s.15,1.35.44,1.91c.29.56.69,1,1.2,1.32.5.32,1.08.48,1.74.48Z"/>
    <path class="st0" d="M408.32,527.09c-.91,0-1.74-.25-2.49-.76s-1.35-1.19-1.8-2.06c-.45-.87-.67-1.85-.67-2.94s.23-2.09.68-2.95c.46-.86,1.07-1.54,1.85-2.03.78-.49,1.65-.73,2.62-.73.57,0,1.1.08,1.57.25.48.17.89.4,1.25.7.36.3.65.65.88,1.04.23.39.37.81.43,1.26l-.48-.17v-2.86h2.18v11.02h-2.18v-2.62l.5-.15c-.08.38-.25.75-.51,1.1-.26.36-.59.68-.99.96-.4.28-.84.5-1.32.67-.48.17-.99.25-1.52.25ZM408.88,525.1c.66,0,1.24-.16,1.74-.48.5-.32.9-.77,1.19-1.33.29-.57.43-1.21.43-1.94s-.14-1.35-.43-1.91c-.29-.56-.68-1-1.19-1.32-.5-.32-1.09-.48-1.74-.48s-1.21.16-1.71.48-.89.76-1.18,1.32c-.29.56-.43,1.2-.43,1.91s.14,1.38.43,1.94.68,1.01,1.18,1.33c.5.32,1.07.48,1.71.48Z"/>
    <path class="st0" d="M422.05,527.09c-1.02,0-1.94-.25-2.74-.76-.8-.5-1.44-1.19-1.91-2.06-.47-.87-.7-1.84-.7-2.92s.23-2.05.7-2.92c.47-.87,1.11-1.55,1.91-2.06.81-.5,1.72-.76,2.74-.76s1.87.2,2.68.6c.81.4,1.42.94,1.84,1.63l-1.2,1.47c-.22-.32-.51-.62-.86-.88-.35-.27-.72-.48-1.11-.63-.39-.15-.77-.23-1.13-.23-.67,0-1.27.17-1.8.49-.52.33-.94.78-1.25,1.35-.31.57-.46,1.22-.46,1.93s.16,1.35.48,1.92.75,1.02,1.28,1.35,1.12.5,1.76.5c.38,0,.75-.06,1.1-.19.36-.13.7-.31,1.04-.57s.65-.56.94-.92l1.2,1.47c-.45.63-1.09,1.15-1.92,1.55s-1.7.61-2.59.61Z"/>
    <path class="st0" d="M427.68,517.96v-2.1h7.01v2.1h-7.01ZM429.97,526.88v-13.84h2.16v13.84h-2.16Z"/>
  </g>
  <g>
    <path d="M182.23,343.9v-81.45h38.17c5.66,0,10.71,1.13,15.13,3.38,4.42,2.25,7.87,5.31,10.36,9.19,2.48,3.88,3.72,8.34,3.72,13.38,0,5.67-1.24,10.63-3.72,14.89-2.49,4.27-5.93,7.58-10.36,9.95-4.42,2.37-9.46,3.55-15.13,3.55h-14.66v27.11h-23.51ZM224.93,343.9l-20.71-36.77,25.72-2.91,23.04,39.68h-28.04ZM205.73,299.33h10.71c1.94,0,3.55-.37,4.83-1.11,1.28-.73,2.25-1.76,2.91-3.08.66-1.32.99-2.91.99-4.77,0-1.7-.33-3.16-.99-4.36-.66-1.2-1.67-2.14-3.03-2.79-1.36-.66-3.08-.99-5.18-.99h-10.24v17.11Z"/>
    <path d="M366.67,343.9v-81.45h25.13v60.04h34.91v21.41h-60.04Z"/>
    <path d="M438.34,343.9v-81.45h25.13v60.04h34.91v21.41h-60.04Z"/>
    <path d="M509.44,343.9v-20.36h14.31v-40.73h-14.31v-20.36h53.76v20.36h-14.31v40.73h14.31v20.36h-53.76Z"/>
    <path d="M581.23,343.9v-81.45h22.46l37.47,51.78-5.35-1.63c-.39-3.1-.72-5.82-.99-8.14-.27-2.33-.51-4.48-.7-6.46-.19-1.98-.35-3.93-.47-5.88-.12-1.94-.17-4.07-.17-6.4v-23.27h24.2v81.45h-22.69l-41.31-57.02,9.42,2.79c.39,2.87.72,5.37.99,7.5.27,2.14.48,4.09.64,5.88.15,1.78.29,3.55.41,5.29.12,1.75.19,3.69.23,5.82.04,2.14.06,4.64.06,7.5v22.22h-24.2Z"/>
    <path d="M715.16,345.06c-6.98,0-13.17-1.05-18.56-3.14-5.39-2.1-9.95-5.04-13.67-8.84-3.72-3.8-6.54-8.3-8.44-13.5-1.9-5.2-2.85-10.86-2.85-16.99s1.07-11.89,3.2-17.05c2.13-5.16,5.22-9.64,9.25-13.44,4.03-3.8,8.82-6.75,14.37-8.84,5.55-2.09,11.73-3.14,18.56-3.14,4.73,0,9.13.58,13.21,1.74,4.07,1.16,7.76,2.74,11.06,4.71,3.3,1.98,6.15,4.21,8.55,6.69l-14.89,15.83c-1.55-1.47-3.22-2.77-5-3.9-1.78-1.13-3.76-2.02-5.94-2.68-2.17-.66-4.61-.99-7.33-.99s-5.35.52-7.68,1.57c-2.33,1.05-4.35,2.5-6.05,4.37-1.71,1.86-3.05,4.09-4.02,6.69-.97,2.6-1.45,5.41-1.45,8.44s.5,5.84,1.51,8.43c1.01,2.6,2.4,4.83,4.19,6.69,1.78,1.86,3.92,3.31,6.4,4.36,2.48,1.05,5.2,1.57,8.15,1.57,2.01,0,3.86-.33,5.53-.99,1.67-.66,3.1-1.55,4.3-2.68,1.2-1.12,2.15-2.48,2.85-4.07.7-1.59,1.05-3.32,1.05-5.18v-3.37l3.26,5.58h-20.71v-17.69h40.03c.08.85.18,2.25.29,4.19.11,1.94.19,3.86.23,5.76.04,1.9.06,3.2.06,3.9,0,5.2-.97,10.01-2.91,14.43-1.94,4.42-4.68,8.22-8.21,11.4-3.53,3.18-7.7,5.66-12.51,7.45-4.81,1.78-10.08,2.68-15.82,2.68Z"/>
    <path d="M765.63,310.32l19.07-47.52h11.54l18.94,47.52h-14.53l-7.6-20.77c-.5-1.4-.93-2.6-1.29-3.6s-.68-1.94-.95-2.82c-.27-.88-.54-1.83-.81-2.85-.27-1.02-.54-2.23-.81-3.63h2.31c-.27,1.4-.54,2.61-.81,3.63-.27,1.02-.56,1.97-.85,2.85-.29.88-.63,1.82-1.02,2.82-.39.99-.83,2.19-1.32,3.6l-7.6,20.77h-14.25ZM775.13,303.26l4.28-9.98h22.06l3.87,9.98h-30.2Z"/>
    <path d="M815.51,310.32v-11.88h8.35v-23.76h-8.35v-11.88h31.36v11.88h-8.35v23.76h8.35v11.88h-31.36Z"/>
    <path d="M323.39,347.64c-5.38,0-10.83-1.37-15.82-4.25l-36.1-20.84c-15.16-8.75-20.38-28.21-11.62-43.37,4.24-7.35,11.09-12.6,19.28-14.79,8.19-2.19,16.75-1.07,24.09,3.17l36.1,20.84c15.16,8.75,20.37,28.21,11.62,43.37-5.88,10.17-16.57,15.87-27.55,15.87ZM287.36,285.12c-.86,0-1.73.11-2.59.34-2.56.69-4.7,2.33-6.03,4.63-2.74,4.74-1.11,10.83,3.64,13.57l36.1,20.84c4.74,2.74,10.83,1.11,13.57-3.63,2.74-4.74,1.11-10.83-3.64-13.57l-36.1-20.84c-1.53-.89-3.23-1.34-4.95-1.34Z"/>
    <rect x="768.24" y="329.35" width="80.12" height="14.54"/>
  </g>
</svg>